<svg width="479" height="287" viewBox="0 0 479 287" fill="none" xmlns="http://www.w3.org/2000/svg">
<g clip-path="url(#clip0)">
<path d="M366.734 283.137C360.601 277.955 356.876 269.769 357.853 261.8C358.83 253.831 364.88 246.505 372.729 244.813C380.577 243.12 389.524 247.805 391.907 255.471C393.219 240.691 394.731 225.29 402.59 212.703C409.705 201.305 422.03 193.15 435.387 191.691C448.744 190.232 462.807 195.743 471.137 206.285C479.467 216.827 481.507 232.154 475.672 244.258C471.375 253.174 463.456 259.81 455.16 265.208C428.351 282.505 396.198 289.539 364.616 285.016L366.734 283.137Z" fill="#F2F2F2"/>
<path d="M457.928 196.048C446.907 205.025 436.797 215.065 427.743 226.023C413.573 243.113 402.107 262.274 393.743 282.839C393.131 284.339 395.567 284.992 396.173 283.508C409.857 250.086 431.702 220.629 459.71 197.829C460.968 196.805 459.176 195.032 457.928 196.048Z" fill="white"/>
<path d="M154.198 281.729C162.621 274.611 167.737 263.368 166.395 252.423C165.054 241.477 156.743 231.415 145.964 229.091C135.184 226.766 122.896 233.2 119.622 243.731C117.82 223.429 115.744 202.277 104.95 184.988C95.1766 169.334 78.2489 158.132 59.9032 156.128C41.5574 154.124 22.2417 161.693 10.8001 176.173C-0.641473 190.653 -3.44289 211.704 4.57049 228.328C10.4737 240.575 21.3494 249.689 32.7445 257.104C69.0987 280.759 114.196 290.625 157.107 284.31" fill="#F2F2F2"/>
<path d="M28.942 162.112C44.0795 174.442 57.9666 188.232 70.4024 203.282C82.8401 218.317 93.7902 234.523 103.099 251.673C108.302 261.293 112.976 271.19 117.1 281.319C117.941 283.38 114.595 284.277 113.764 282.239C106.459 264.381 97.421 247.281 86.7804 231.186C76.1915 215.149 64.0719 200.177 50.5918 186.48C42.9675 178.737 34.9231 171.419 26.4952 164.559C24.7678 163.152 27.2288 160.717 28.942 162.112L28.942 162.112Z" fill="white"/>
<path d="M343.834 285.748H142.874V79.558C142.874 35.6895 178.564 0 222.432 0H264.276C308.144 0 343.834 35.6895 343.834 79.558V285.748Z" fill="#F2F2F2"/>
<path d="M301.99 285.748H142.874V79.5581C142.83 62.7486 148.153 46.3641 158.068 32.7898C158.433 32.2917 158.798 31.8 159.174 31.3137C163.969 25.0239 169.676 19.4847 176.106 14.8787C176.469 14.6144 176.834 14.3547 177.204 14.095C182.584 10.3717 188.404 7.32801 194.532 5.03314C194.896 4.89522 195.266 4.75704 195.636 4.6245C201.178 2.64688 206.923 1.29221 212.764 0.585525C213.126 0.536056 213.498 0.497345 213.87 0.458634C219.562 -0.150009 225.303 -0.150009 230.996 0.458634C231.366 0.497345 231.738 0.536051 232.105 0.586054C237.944 1.29279 243.687 2.64729 249.228 4.62452C249.598 4.75706 249.969 4.89524 250.334 5.03342C256.385 7.29935 262.137 10.2977 267.46 13.9614C267.83 14.2155 268.2 14.4752 268.565 14.7349C272.169 17.3076 275.554 20.1737 278.686 23.304C281.198 25.8149 283.538 28.4913 285.692 31.3153C286.067 31.8 286.431 32.2917 286.796 32.7891C296.711 46.3634 302.034 62.7483 301.99 79.5581V285.748Z" fill="#CCCCCC"/>
<path d="M289.052 193.527C293.917 193.527 297.861 189.583 297.861 184.718C297.861 179.853 293.917 175.909 289.052 175.909C284.186 175.909 280.242 179.853 280.242 184.718C280.242 189.583 284.186 193.527 289.052 193.527Z" fill="#859CF0"/>
<path d="M327.371 279.573H320.621L317.41 253.537L327.372 253.537L327.371 279.573Z" fill="#FFB8B8"/>
<path d="M315.8 277.644H328.817V285.84H307.603C307.603 284.764 307.815 283.698 308.227 282.703C308.639 281.709 309.243 280.805 310.004 280.044C310.765 279.283 311.669 278.68 312.663 278.268C313.657 277.856 314.723 277.644 315.8 277.644Z" fill="#2F2E41"/>
<path d="M360.956 279.573H354.206L350.995 253.537L360.957 253.537L360.956 279.573Z" fill="#FFB8B8"/>
<path d="M349.385 277.644H362.402V285.84H341.188C341.188 284.764 341.4 283.698 341.812 282.703C342.224 281.709 342.828 280.805 343.589 280.044C344.35 279.283 345.254 278.68 346.248 278.268C347.242 277.856 348.308 277.644 349.385 277.644Z" fill="#2F2E41"/>
<path d="M293.51 186.463C293.024 185.747 292.702 184.934 292.564 184.081C292.427 183.227 292.479 182.353 292.715 181.522C292.952 180.69 293.368 179.921 293.935 179.267C294.501 178.614 295.204 178.093 295.993 177.74L318.939 114.497L330.23 120.659L304.031 181.096C304.535 182.462 304.52 183.965 303.99 185.321C303.46 186.677 302.451 187.791 301.154 188.453C299.857 189.114 298.363 189.277 296.954 188.91C295.545 188.544 294.32 187.673 293.51 186.463Z" fill="#FFB8B8"/>
<path d="M357.508 198.347C356.758 197.916 356.111 197.327 355.614 196.62C355.116 195.913 354.779 195.105 354.627 194.254C354.476 193.403 354.512 192.529 354.735 191.693C354.957 190.858 355.36 190.081 355.915 189.418L348.807 122.518L361.656 123.105L364.61 188.91C365.662 189.916 366.309 191.274 366.427 192.725C366.545 194.176 366.126 195.62 365.251 196.783C364.375 197.946 363.104 198.748 361.677 199.036C360.25 199.324 358.767 199.079 357.508 198.347Z" fill="#FFB8B8"/>
<path d="M337.01 102.783C344.478 102.783 350.533 96.729 350.533 89.2606C350.533 81.7922 344.478 75.7379 337.01 75.7379C329.542 75.7379 323.487 81.7922 323.487 89.2606C323.487 96.729 329.542 102.783 337.01 102.783Z" fill="#FFB8B8"/>
<path d="M357.422 183.131H316.654L316.703 182.814C316.776 182.34 323.968 135.223 318.664 119.809C318.131 118.294 318.178 116.636 318.795 115.153C319.412 113.671 320.555 112.469 322.005 111.779H322.005C329.588 108.209 344.143 103.812 356.427 114.482C358.235 116.078 359.647 118.073 360.551 120.309C361.455 122.544 361.826 124.96 361.635 127.363L357.422 183.131Z" fill="#859CF0"/>
<path d="M324.484 142.186L306.129 138.463L314.733 118.075C315.248 116.1 316.525 114.41 318.284 113.376C320.043 112.342 322.14 112.047 324.116 112.557C326.092 113.067 327.785 114.34 328.824 116.097C329.862 117.854 330.162 119.95 329.657 121.928L324.484 142.186Z" fill="#859CF0"/>
<path d="M347.991 149.1L346.887 123.806C346.051 119.051 348.773 114.556 352.959 113.821C357.146 113.089 361.235 116.387 362.075 121.177L366.223 144.812L347.991 149.1Z" fill="#859CF0"/>
<path d="M356.065 180.103C362.625 205.087 363.341 236.851 361.571 271.499L352.762 270.398L336.795 204.329L327.986 271.499L318.076 270.948C315.115 234.594 312.232 203.384 316.975 182.856L356.065 180.103Z" fill="#2F2E41"/>
<path d="M345.92 99.7113C343.397 102.399 338.712 100.956 338.384 97.2848C338.358 96.9998 338.36 96.7129 338.389 96.4283C338.559 94.8021 339.498 93.3258 339.273 91.6088C339.222 91.1814 339.063 90.7742 338.811 90.4256C336.801 87.7337 332.082 91.6297 330.184 89.1928C329.021 87.6985 330.389 85.3458 329.496 83.6757C328.318 81.4714 324.828 82.5588 322.639 81.3516C320.204 80.0085 320.35 76.2725 321.952 74C323.907 71.2286 327.335 69.7498 330.719 69.5367C334.104 69.3236 337.466 70.2385 340.626 71.47C344.216 72.8692 347.776 74.8029 349.986 77.9599C352.673 81.7992 352.931 86.9607 351.587 91.45C350.77 94.1808 347.98 97.5169 345.92 99.7113Z" fill="#2F2E41"/>
<path d="M462.473 286.103H55.9867C55.8131 286.102 55.6469 286.033 55.5244 285.91C55.4018 285.787 55.333 285.621 55.333 285.447C55.333 285.273 55.4018 285.107 55.5244 284.984C55.6469 284.861 55.8131 284.792 55.9867 284.791H462.473C462.646 284.792 462.812 284.861 462.935 284.984C463.058 285.107 463.126 285.273 463.126 285.447C463.126 285.621 463.058 285.787 462.935 285.91C462.812 286.033 462.646 286.102 462.473 286.103Z" fill="#3F3D56"/>
<path d="M258.22 226.011H186.645C185.702 226.016 184.796 225.647 184.125 224.985C183.454 224.323 183.073 223.421 183.066 222.479V62.7189C183.073 61.7763 183.454 60.875 184.125 60.2129C184.796 59.5507 185.702 59.1817 186.645 59.1868H258.22C259.162 59.1817 260.068 59.5507 260.739 60.2129C261.41 60.875 261.791 61.7763 261.798 62.7189V222.479C261.791 223.421 261.41 224.323 260.739 224.985C260.068 225.647 259.162 226.016 258.22 226.011Z" fill="white"/>
<path d="M261.798 110.88H183.066V111.981H261.798V110.88Z" fill="#CCCCCC"/>
<path d="M262.074 173.706H183.341V174.807H262.074V173.706Z" fill="#CCCCCC"/>
<path d="M208.943 59.1868H207.842V226.562H208.943V59.1868Z" fill="#CCCCCC"/>
<path d="M236.472 59.1868H235.371V226.562H236.472V59.1868Z" fill="#CCCCCC"/>
</g>
<defs>
<clipPath id="clip0">
<rect width="479" height="286.375" fill="white"/>
</clipPath>
</defs>
</svg>
