<svg width="479" height="277" viewBox="0 0 479 277" fill="none" xmlns="http://www.w3.org/2000/svg">
<g clip-path="url(#clip0)">
<path d="M224.052 25.9779L222.455 36.4632L471.17 74.1629L472.767 63.6777L224.052 25.9779Z" fill="#F5F5F5"/>
<path d="M219.763 21.755L189.555 220.067L448.782 259.36L478.989 61.0479L219.763 21.755Z" fill="url(#paint0_linear)"/>
<path d="M222.448 36.461L194.902 217.299L443.618 254.999L471.163 74.1607L222.448 36.461Z" fill="#F5F5F5"/>
<path d="M231.895 32.5297C232.111 31.1141 231.135 29.7921 229.716 29.577C228.297 29.3619 226.972 30.3351 226.756 31.7507C226.541 33.1664 227.516 34.4884 228.935 34.7035C230.355 34.9186 231.68 33.9454 231.895 32.5297Z" fill="#FF5252"/>
<path d="M238.961 33.5977C239.177 32.182 238.201 30.86 236.782 30.6449C235.363 30.4298 234.037 31.403 233.822 32.8187C233.606 34.2344 234.582 35.5564 236.001 35.7715C237.42 35.9866 238.745 35.0133 238.961 33.5977Z" fill="#FFFF00"/>
<path d="M246.026 34.671C246.242 33.2553 245.266 31.9333 243.847 31.7182C242.428 31.5031 241.103 32.4763 240.887 33.892C240.672 35.3077 241.647 36.6297 243.066 36.8448C244.485 37.0599 245.811 36.0867 246.026 34.671Z" fill="#69F0AE"/>
<path d="M230.5 54.2186L220.519 119.741L443.84 153.591L453.821 88.069L230.5 54.2186Z" fill="url(#paint1_linear)"/>
<path d="M451.246 90.3579L232.742 57.2375L223.493 117.955L441.997 151.075L451.246 90.3579Z" fill="#859CF0"/>
<path d="M254.757 150.844L252.827 163.512L267.716 165.769L269.646 153.101L254.757 150.844Z" fill="url(#paint2_linear)"/>
<path d="M269.307 153.943L255.296 151.819L253.699 162.304L267.71 164.428L269.307 153.943Z" fill="#859CF0"/>
<path d="M266.572 171.852L252.561 169.728L250.964 180.214L264.975 182.337L266.572 171.852Z" fill="#FF5252"/>
<path d="M263.847 189.763L249.836 187.639L248.239 198.124L262.25 200.248L263.847 189.763Z" fill="#FF9800"/>
<path opacity="0.4" d="M405.152 176.768L292.18 159.644L291.249 165.757L404.221 182.881L405.152 176.768Z" fill="#859CF0"/>
<path opacity="0.4" d="M402.422 194.678L289.45 177.554L288.519 183.667L401.49 200.791L402.422 194.678Z" fill="#859CF0"/>
<path opacity="0.4" d="M399.697 212.589L286.725 195.465L285.794 201.578L398.766 218.702L399.697 212.589Z" fill="#859CF0"/>
<path d="M267.215 4.72567L5.82214 63.0109L8.10403 73.1944L269.497 14.9092L267.215 4.72567Z" fill="#F5F5F5"/>
<path d="M272.434 -0.00300196L-0.00256348 60.7447L43.1619 253.378L315.599 192.631L272.434 -0.00300196Z" fill="url(#paint3_linear)"/>
<path d="M269.495 14.9151L8.10217 73.2003L47.4635 248.861L308.857 190.576L269.495 14.9151Z" fill="#F5F5F5"/>
<path d="M13.9019 69.1673C15.3921 68.835 16.3505 67.4515 16.0426 66.077C15.7346 64.7026 14.2769 63.8578 12.7867 64.1901C11.2964 64.5224 10.338 65.9059 10.646 67.2804C10.954 68.6548 12.4117 69.4996 13.9019 69.1673Z" fill="#FF5252"/>
<path d="M21.3298 67.516C22.82 67.1837 23.7784 65.8001 23.4704 64.4257C23.1624 63.0513 21.7047 62.2065 20.2145 62.5388C18.7243 62.8711 17.7659 64.2546 18.0739 65.629C18.3818 67.0035 19.8396 67.8483 21.3298 67.516Z" fill="#FFFF00"/>
<path d="M28.7523 65.8605C30.2425 65.5282 31.2009 64.1447 30.8929 62.7702C30.5849 61.3958 29.1272 60.551 27.637 60.8833C26.1468 61.2156 25.1884 62.5991 25.4964 63.9736C25.8043 65.348 27.2621 66.1928 28.7523 65.8605Z" fill="#69F0AE"/>
<path d="M257.367 34.1023L22.6639 86.4361L36.9257 150.083L271.629 97.7495L257.367 34.1023Z" fill="url(#paint4_linear)"/>
<path d="M255.638 37.1588L25.9974 88.3638L39.2128 147.341L268.853 96.1359L255.638 37.1588Z" fill="#859CF0"/>
<path d="M98.1299 162.271L82.483 165.76L85.2397 178.063L100.887 174.574L98.1299 162.271Z" fill="url(#paint5_linear)"/>
<path d="M99.3212 163.922L84.5312 167.234L86.8326 177.46L101.622 174.148L99.3212 163.922Z" fill="#859CF0"/>
<path d="M101.989 180.567L87.2611 183.851L89.543 194.035L104.271 190.751L101.989 180.567Z" fill="#FF5252"/>
<path d="M107.218 198.843L92.4283 202.155L94.7296 212.381L109.52 209.069L107.218 198.843Z" fill="#FF9800"/>
<path opacity="0.4" d="M241.682 133.377L122.953 159.852L124.284 165.792L243.013 139.318L241.682 133.377Z" fill="#859CF0"/>
<path opacity="0.4" d="M245.579 150.777L126.85 177.251L128.181 183.191L246.911 156.717L245.579 150.777Z" fill="#859CF0"/>
<path opacity="0.4" d="M249.477 168.17L130.748 194.644L132.079 200.585L250.808 174.111L249.477 168.17Z" fill="#859CF0"/>
<path d="M394.712 9.8587H90.9515V22.6622H394.712V9.8587Z" fill="#F5F5F5"/>
<path d="M401.664 5.59087H85.0688V247.791H401.664V5.59087Z" fill="url(#paint6_linear)"/>
<path d="M394.712 22.6622H90.9515V243.523H394.712V22.6622Z" fill="white"/>
<path d="M98.3691 19.392C100.103 19.392 101.508 17.9899 101.508 16.2605C101.508 14.531 100.103 13.1289 98.3691 13.1289C96.6353 13.1289 95.2299 14.531 95.2299 16.2605C95.2299 17.9899 96.6353 19.392 98.3691 19.392Z" fill="#FF5252"/>
<path d="M106.995 19.392C108.729 19.392 110.135 17.9899 110.135 16.2605C110.135 14.531 108.729 13.1289 106.995 13.1289C105.262 13.1289 103.856 14.531 103.856 16.2605C103.856 17.9899 105.262 19.392 106.995 19.392Z" fill="#FFFF00"/>
<path d="M115.621 19.392C117.355 19.392 118.761 17.9899 118.761 16.2605C118.761 14.531 117.355 13.1289 115.621 13.1289C113.888 13.1289 112.482 14.531 112.482 16.2605C112.482 17.9899 113.888 19.392 115.621 19.392Z" fill="#69F0AE"/>
<path d="M376.529 42.4009H103.786V122.423H376.529V42.4009Z" fill="url(#paint7_linear)"/>
<path d="M373.855 45.6018H106.995V119.755H373.855V45.6018Z" fill="#859CF0"/>
<path d="M168.496 153.365H150.313V168.836H168.496V153.365Z" fill="url(#paint8_linear)"/>
<path d="M168.229 154.432H151.115V167.235H168.229V154.432Z" fill="#859CF0"/>
<path d="M168.229 176.304H151.115V189.108H168.229V176.304Z" fill="#FF5252"/>
<path d="M168.229 198.177H151.115V210.98H168.229V198.177Z" fill="#FF9800"/>
<path opacity="0.4" d="M334.548 157.099H196.573V164.568H334.548V157.099Z" fill="#859CF0"/>
<path opacity="0.4" d="M334.548 178.972H196.573V186.44H334.548V178.972Z" fill="#859CF0"/>
<path opacity="0.4" d="M334.548 200.844H196.573V208.313H334.548V200.844Z" fill="#859CF0"/>
<path d="M294.171 194.443H194.701V276.065H294.171V194.443Z" fill="url(#paint9_linear)"/>
<path d="M217.654 181.463C217.654 174.094 220.588 167.026 225.812 161.815C231.036 156.604 238.121 153.677 245.508 153.677C252.896 153.677 259.981 156.604 265.204 161.815C270.428 167.026 273.363 174.094 273.363 181.463V199.244H281.16V181.463C281.218 176.756 280.338 172.084 278.573 167.719C276.807 163.353 274.19 159.381 270.874 156.032C267.557 152.683 263.608 150.024 259.253 148.21C254.899 146.395 250.227 145.46 245.508 145.46C240.789 145.46 236.117 146.395 231.763 148.21C227.409 150.024 223.459 152.683 220.143 156.032C216.827 159.381 214.21 163.353 212.444 167.719C210.678 172.084 209.799 176.756 209.857 181.463V199.244H217.654V181.463Z" fill="url(#paint10_linear)"/>
<path d="M218.766 181.106C218.766 174.031 221.583 167.247 226.598 162.244C231.613 157.242 238.414 154.432 245.506 154.432C252.597 154.432 259.399 157.242 264.413 162.244C269.428 167.247 272.245 174.031 272.245 181.106V198.177H279.732V181.106C279.732 172.05 276.126 163.366 269.707 156.963C263.289 150.56 254.583 146.963 245.506 146.963C236.428 146.963 227.723 150.56 221.304 156.963C214.885 163.366 211.279 172.05 211.279 181.106V198.177H218.766V181.106Z" fill="white"/>
<path d="M292.032 197.11H198.979V272.864H292.032V197.11Z" fill="#859CF0"/>
<path d="M292.032 197.11H198.979V272.864H292.032V197.11Z" fill="white"/>
<path d="M292.032 212.047H198.979V257.927H292.032V212.047Z" fill="#859CF0"/>
<path d="M252.335 226.323C252.34 225.21 252.071 224.112 251.552 223.126C251.033 222.14 250.279 221.296 249.357 220.668C248.434 220.04 247.372 219.648 246.262 219.526C245.152 219.403 244.029 219.554 242.992 219.965C241.954 220.376 241.033 221.035 240.311 221.884C239.588 222.733 239.085 223.746 238.846 224.834C238.606 225.922 238.639 227.051 238.939 228.124C239.24 229.197 239.8 230.179 240.57 230.986V245.507C240.57 246.82 241.093 248.079 242.023 249.008C242.954 249.936 244.216 250.458 245.532 250.458C246.849 250.458 248.111 249.936 249.042 249.008C249.972 248.079 250.495 246.82 250.495 245.507V230.986C251.683 229.723 252.342 228.055 252.335 226.323Z" fill="url(#paint11_linear)"/>
<path opacity="0.2" d="M251.388 227.518C251.39 226.56 251.157 225.616 250.708 224.768C250.26 223.921 249.61 223.196 248.816 222.657C248.022 222.117 247.107 221.78 246.152 221.675C245.198 221.57 244.231 221.699 243.338 222.052C242.445 222.405 241.652 222.971 241.029 223.7C240.406 224.43 239.971 225.3 239.763 226.236C239.555 227.171 239.579 228.143 239.835 229.067C240.09 229.991 240.568 230.838 241.227 231.535V244.056C241.227 245.188 241.678 246.274 242.48 247.074C243.283 247.874 244.371 248.324 245.506 248.324C246.64 248.324 247.729 247.874 248.531 247.074C249.333 246.274 249.784 245.188 249.784 244.056V231.535C250.812 230.449 251.386 229.012 251.388 227.518Z" fill="black"/>
</g>
<defs>
<linearGradient id="paint0_linear" x1="319.171" y1="239.714" x2="349.234" y2="41.38" gradientUnits="userSpaceOnUse">
<stop stop-color="#808080" stop-opacity="0.25"/>
<stop offset="0.54" stop-color="#808080" stop-opacity="0.12"/>
<stop offset="1" stop-color="#808080" stop-opacity="0.1"/>
</linearGradient>
<linearGradient id="paint1_linear" x1="36805" y1="107202" x2="41000.5" y2="79523.6" gradientUnits="userSpaceOnUse">
<stop stop-color="#808080" stop-opacity="0.25"/>
<stop offset="0.54" stop-color="#808080" stop-opacity="0.12"/>
<stop offset="1" stop-color="#808080" stop-opacity="0.1"/>
</linearGradient>
<linearGradient id="paint2_linear" x1="7468.03" y1="9107.28" x2="7522.11" y2="8750.49" gradientUnits="userSpaceOnUse">
<stop stop-color="#808080" stop-opacity="0.25"/>
<stop offset="0.54" stop-color="#808080" stop-opacity="0.12"/>
<stop offset="1" stop-color="#808080" stop-opacity="0.1"/>
</linearGradient>
<linearGradient id="paint3_linear" x1="144277" y1="90307.4" x2="128381" y2="19016.4" gradientUnits="userSpaceOnUse">
<stop stop-color="#808080" stop-opacity="0.25"/>
<stop offset="0.54" stop-color="#808080" stop-opacity="0.12"/>
<stop offset="1" stop-color="#808080" stop-opacity="0.1"/>
</linearGradient>
<linearGradient id="paint4_linear" x1="106461" y1="4006.22" x2="104726" y2="-3776.46" gradientUnits="userSpaceOnUse">
<stop stop-color="#808080" stop-opacity="0.25"/>
<stop offset="0.54" stop-color="#808080" stop-opacity="0.12"/>
<stop offset="1" stop-color="#808080" stop-opacity="0.1"/>
</linearGradient>
<linearGradient id="paint5_linear" x1="6056.85" y1="5113.87" x2="5992.01" y2="4823.09" gradientUnits="userSpaceOnUse">
<stop stop-color="#808080" stop-opacity="0.25"/>
<stop offset="0.54" stop-color="#808080" stop-opacity="0.12"/>
<stop offset="1" stop-color="#808080" stop-opacity="0.1"/>
</linearGradient>
<linearGradient id="paint6_linear" x1="144158" y1="112502" x2="144158" y2="2543.84" gradientUnits="userSpaceOnUse">
<stop stop-color="#808080" stop-opacity="0.25"/>
<stop offset="0.54" stop-color="#808080" stop-opacity="0.12"/>
<stop offset="1" stop-color="#808080" stop-opacity="0.1"/>
</linearGradient>
<linearGradient id="paint7_linear" x1="122584" y1="18405.8" x2="122584" y2="6402.54" gradientUnits="userSpaceOnUse">
<stop stop-color="#808080" stop-opacity="0.25"/>
<stop offset="0.54" stop-color="#808080" stop-opacity="0.12"/>
<stop offset="1" stop-color="#808080" stop-opacity="0.1"/>
</linearGradient>
<linearGradient id="paint8_linear" x1="5570.07" y1="5049.6" x2="5570.07" y2="4600.94" gradientUnits="userSpaceOnUse">
<stop stop-color="#808080" stop-opacity="0.25"/>
<stop offset="0.54" stop-color="#808080" stop-opacity="0.12"/>
<stop offset="1" stop-color="#808080" stop-opacity="0.1"/>
</linearGradient>
<linearGradient id="paint9_linear" x1="45659.8" y1="42432.4" x2="45659.8" y2="29944.1" gradientUnits="userSpaceOnUse">
<stop stop-color="#808080" stop-opacity="0.25"/>
<stop offset="0.54" stop-color="#808080" stop-opacity="0.12"/>
<stop offset="1" stop-color="#808080" stop-opacity="0.1"/>
</linearGradient>
<linearGradient id="paint10_linear" x1="43795.9" y1="30519.2" x2="43795.9" y2="25140.8" gradientUnits="userSpaceOnUse">
<stop stop-color="#808080" stop-opacity="0.25"/>
<stop offset="0.54" stop-color="#808080" stop-opacity="0.12"/>
<stop offset="1" stop-color="#808080" stop-opacity="0.1"/>
</linearGradient>
<linearGradient id="paint11_linear" x1="8580.63" y1="20685.1" x2="8580.63" y2="18888.6" gradientUnits="userSpaceOnUse">
<stop stop-color="#808080" stop-opacity="0.25"/>
<stop offset="0.54" stop-color="#808080" stop-opacity="0.12"/>
<stop offset="1" stop-color="#808080" stop-opacity="0.1"/>
</linearGradient>
<clipPath id="clip0">
<rect width="479" height="276.065" fill="white"/>
</clipPath>
</defs>
</svg>
